<svg width="64" height="64" viewBox="0 0 64 64" fill="none" xmlns="http://www.w3.org/2000/svg">
  <rect width="64" height="64" rx="14" fill="#1B1B1B" />
  <path
    d="M20 15H35.5C44.0604 15 49 19.4041 49 26.4171C49 31.0637 46.1234 34.6803 41.6494 35.9045C47.1132 36.742 50.5 40.5658 50.5 46.0268C50.5 53.6731 45.0625 58 35.4239 58H20V15ZM29.1506 32.3682H34.7431C38.6711 32.3682 40.9936 30.4318 40.9936 27.0239C40.9936 23.5382 38.5937 21.6541 34.2005 21.6541H29.1506V32.3682ZM29.1506 51.3197H35.9665C40.8241 51.3197 43.586 49.3312 43.586 45.4268C43.586 41.6783 40.9792 39.5605 35.837 39.5605H29.1506V51.3197Z"
    fill="#F5F1E8"
  />
</svg>
